<svg xmlns="http://www.w3.org/2000/svg" data-name="Layer 1" viewBox="0 0 100 125" x="0px" y="0px"><title>4.3</title><path d="M64.71,53a5.12,5.12,0,0,0-.78-2.71,13.46,13.46,0,0,0-.23-5.49,5.71,5.71,0,0,0,.45-5.44c0-.06,0-.11,0-.16a12.7,12.7,0,0,0-3-9.58A5,5,0,0,0,61.36,28a5.15,5.15,0,0,0-1-2.69,10.74,10.74,0,0,0-10.61-8.94l-.67,0A10.74,10.74,0,0,0,39,27.52a5.45,5.45,0,0,0-.33,2.27,5.34,5.34,0,0,0,.52,2,12,12,0,0,0-1.31,3.86,5.87,5.87,0,0,0-1,2.71,5.71,5.71,0,0,0,.72,3.47,13.88,13.88,0,0,0-1.47,6.25v.39a5.79,5.79,0,0,0,2,7.92l7.66,23.94a4.5,4.5,0,0,0,8.64,0l7.29-22.67A5.13,5.13,0,0,0,64.71,53Zm-3.6-4.9a11.06,11.06,0,0,1-.45,3.07A2.12,2.12,0,0,1,61.71,53a2,2,0,0,1,0,.25h0a3.61,3.61,0,0,1-.08.38h0a1.43,1.43,0,0,1-.14.34v0a1.81,1.81,0,0,1-.19.29l0,.05-.21.22-.09.07a1.66,1.66,0,0,1-.21.16l-.15.08-.19.1-.23.07-.15,0a1.84,1.84,0,0,1-.41,0l-.26,0h0a2.11,2.11,0,0,1-1.83-1.79h0a2.77,2.77,0,0,1-.71-.1,2,2,0,0,1-1.84,1.21,2,2,0,0,1-1.38-.56,2.77,2.77,0,0,1-4.18-.19,1.16,1.16,0,0,1-.9.43,1.18,1.18,0,0,1-1-.52,3.08,3.08,0,0,1-1.57.43,3.16,3.16,0,0,1-1.19-.24,1.72,1.72,0,0,1-3.19.47,3.13,3.13,0,0,1-.44,0,3,3,0,0,1-.52,0h0a3,3,0,0,1-.72-.24l-.08,0a2.6,2.6,0,0,1-.59-.41h0a3,3,0,0,1-.8-1.34h0a2.84,2.84,0,0,1-.1-.72,2.77,2.77,0,0,1,.91-2.06,9.5,9.5,0,0,1-.09-1.31,11.05,11.05,0,0,1,.75-4A5.59,5.59,0,0,0,42,44.8a4.54,4.54,0,0,0,.63,0,5.76,5.76,0,0,0,2.4-.53,5.81,5.81,0,0,0,1.37.32l.66,0a4,4,0,0,0,.49,0,5.77,5.77,0,0,0,3.83,2.06c.21,0,.43,0,.64,0a5.68,5.68,0,0,0,2.37-.51l.51.09.45,0a5.8,5.8,0,0,0,2.85,1.13l.63,0a5.81,5.81,0,0,0,2.21-.44A9.28,9.28,0,0,1,61.11,48.11ZM61.62,42a2.39,2.39,0,0,1-.14.6l-.06.16a2.32,2.32,0,0,1-.22.41l-.07.12a2.89,2.89,0,0,1-.91.83h0a2.82,2.82,0,0,1-1.38.37h-.31A2.84,2.84,0,0,1,56.37,43a1.6,1.6,0,0,1-1,.31h-.18a1.62,1.62,0,0,1-1.08-.57,2.79,2.79,0,0,1-2.12,1h-.31a2.8,2.8,0,0,1-2.48-3,3,3,0,0,1-2.17.92h-.33a3.07,3.07,0,0,1-1.86-.93,2.84,2.84,0,0,1-2.22,1.12h0l-.3,0a2.93,2.93,0,0,1-.94-.28h0l-.31-.18-.07,0a3,3,0,0,1-.76-.8v0A2.78,2.78,0,0,1,39.84,39a2.43,2.43,0,0,1,0-.27,2.82,2.82,0,0,1,.93-1.78c0-.09,0-.18,0-.27a9.45,9.45,0,0,1,.59-2.45,5.55,5.55,0,0,0,2.85.8h.34a5.42,5.42,0,0,0,2.3-.65,6.33,6.33,0,0,0,2,.32h.38a6.34,6.34,0,0,0,3.49-1.32h.34a5.36,5.36,0,0,0,1.12-.19,5.18,5.18,0,0,0,2,.41h.32a5.09,5.09,0,0,0,3-1.21,9.61,9.61,0,0,1,1.7,6.55c0,.36-.11.7-.18,1A2.78,2.78,0,0,1,61.62,42ZM42,27.56a7.71,7.71,0,0,1,7.28-8.13l.49,0a7.72,7.72,0,0,1,7.74,7.2s0,0,0,0a2.3,2.3,0,0,1,.52.6h0a3.55,3.55,0,0,1,.21.44s0,0,0,0a2.28,2.28,0,0,1,.1.52,2.32,2.32,0,0,1,0,.53l0,.13a2.7,2.7,0,0,1-.14.4.2.2,0,0,0,0,.08,2.21,2.21,0,0,1-.72.8h0a2.09,2.09,0,0,1-1.08.37h-.13a2.2,2.2,0,0,1-1.76-.9,2.4,2.4,0,0,1-1.54.68h-.14a2.5,2.5,0,0,1-1.06-.25,3.37,3.37,0,0,1-2.63,1.57h-.2a3.33,3.33,0,0,1-2.38-1A2.53,2.53,0,0,1,44.39,32h-.16a2.57,2.57,0,0,1-1.29-.35h0a2.63,2.63,0,0,1-.85-.81L42,30.74a3.11,3.11,0,0,1-.2-.41.78.78,0,0,0,0-.14,2.3,2.3,0,0,1-.1-1,2.14,2.14,0,0,1,.06-.35,2.66,2.66,0,0,1,.35-.83C42.07,27.88,42,27.73,42,27.56ZM51.5,79.49a1.51,1.51,0,0,1-2.9,0L41.71,57.93a4.63,4.63,0,0,0,1.34.21,4.72,4.72,0,0,0,3-1.12,5.49,5.49,0,0,0,1.07-.13,4.13,4.13,0,0,0,1.3.22l.42,0a5.81,5.81,0,0,0,4.87.2,5.06,5.06,0,0,0,1.17.14,5.18,5.18,0,0,0,1.67-.28,5.2,5.2,0,0,0,1.82.83Z"/><text x="0" y="115" fill="#000000" font-size="5px" font-weight="bold" font-family="'Helvetica Neue', Helvetica, Arial-Unicode, Arial, Sans-serif">Created by Landan Lloyd</text><text x="0" y="120" fill="#000000" font-size="5px" font-weight="bold" font-family="'Helvetica Neue', Helvetica, Arial-Unicode, Arial, Sans-serif">from the Noun Project</text></svg>