<svg xmlns="http://www.w3.org/2000/svg" xmlns:xlink="http://www.w3.org/1999/xlink" version="1.1" x="0px" y="0px" viewBox="0 0 100 125" style="enable-background:new 0 0 100 100;" xml:space="preserve"><g><path d="M50.5283203,62.3232422c-0.4343262-2.0397949-2.357605-3.3642578-4.3845215-3.1366577   c0.6894531-0.8180542,1.1194458-1.965271,0.9138184-3.4907837c-0.1113281-0.8208008-0.8583984-1.3964844-1.6865234-1.2866211   c-0.8212891,0.1108398-1.3964844,0.8657227-1.2861328,1.6870117c0.119812,0.8925171-0.2557983,1.3293457-0.717041,1.5389404   c-0.9266357-0.5111084-1.9899902-0.8035889-3.1208496-0.8035889c-1.1310425,0-2.194519,0.2926025-3.1212769,0.803833   c-0.4609375-0.2095337-0.8362427-0.6469116-0.7166138-1.5391846c0.1103516-0.8212891-0.4648438-1.5761719-1.2861328-1.6870117   c-0.8300781-0.109375-1.5761719,0.4658203-1.6865234,1.2866211c-0.2055054,1.5245361,0.2238159,2.6713257,0.9122925,3.4892578   c-0.9240723-0.1054688-1.8487549,0.0901489-2.638855,0.6030273c-0.9013672,0.5844727-1.5205078,1.4848633-1.7441406,2.5351563   c0,0,0,0,0,0.0004883c-0.0957031,0.4482422-0.109375,0.9208984-0.0390625,1.4038086   c0.0625,0.4350586,0.3125,0.8208008,0.6845703,1.0556641c0.4121094,0.2597656,0.8486328,0.4404297,1.2978516,0.5361328   c0.28125,0.0595703,0.5644531,0.0893555,0.8457031,0.0893555c0.4030762,0,0.8010864-0.0646362,1.1846924-0.1845093   c0.2687988,1.8319702,0.8359985,4.2652588,1.6209717,6.3978882c0.2167969,0.5898438,0.7783203,0.9819336,1.4072266,0.9819336   h6.5576172c0.6289063,0,1.1904297-0.3920898,1.4072266-0.9819336c0.7855225-2.133606,1.3529053-4.5665894,1.6218262-6.3979492   c0.383606,0.119873,0.7816772,0.1845703,1.1848145,0.1845703c0.28125,0,0.5644531-0.0297852,0.8457031-0.0893555   c0.4462891-0.0952148,0.8818359-0.2753906,1.2958984-0.534668c0.3730469-0.234375,0.6240234-0.6210938,0.6865234-1.0571289   c0.0703125-0.4829102,0.0566406-0.9555664-0.0390625-1.4038086C50.5283203,62.3232422,50.5283203,62.3232422,50.5283203,62.3232422   z M42.4560547,69.6040039h-4.4189453c-0.8242188-2.5600586-1.2744141-5.2426758-1.2744141-6.2880859   c0-1.9213867,1.5634766-3.484375,3.484375-3.484375s3.484375,1.5629883,3.484375,3.484375   C43.7314453,64.3603516,43.2802734,67.0424805,42.4560547,69.6040039z"/><path d="M24.7421875,96h27.2958984h3.7138672H74.5c0.828125,0,1.5-0.6713867,1.5-1.5v-62   c0-0.0164185-0.0042725-0.0316772-0.0048218-0.0479736c-0.001709-0.053772-0.008667-0.105957-0.0159302-0.1582031   c-0.0065918-0.0474243-0.0126953-0.0948486-0.0239258-0.1419678c-0.0107422-0.0448608-0.026001-0.0877075-0.0406494-0.1308594   c-0.0175171-0.0516357-0.0355225-0.1032104-0.059082-0.1536865c-0.0066528-0.0143433-0.0095825-0.0293579-0.0167236-0.0435791   l-8.9316406-17.6810303V5.5c0-0.8286133-0.671875-1.5-1.5-1.5H34.5927734c-0.828125,0-1.5,0.6713867-1.5,1.5v8.267334   c-0.0049438,0.0088501-0.0127563,0.0151978-0.0175781,0.0241699l-9.6494141,18   c-0.0020752,0.0038452-0.0025024,0.0081177-0.0045166,0.0119629C23.31073,32.0124512,23.2421875,32.2470703,23.2421875,32.5v62   C23.2421875,95.3286133,23.9140625,96,24.7421875,96z M52.0380859,93H26.2421875V34h25.7958984h2.2138672v59H52.0380859z M73,93   H57.2519531V34H73V93z M72.0617676,31H58.2639771l7.1038208-13.2514038L72.0617676,31z M36.0927734,7h27.8144531v6H36.0927734V7z    M35.2949219,16h27.6064453l-8.0410156,15h-2.8222656H27.2539063L35.2949219,16z"/></g><text x="0" y="115" fill="#000000" font-size="5px" font-weight="bold" font-family="'Helvetica Neue', Helvetica, Arial-Unicode, Arial, Sans-serif">Created by Wawan Hermawan</text><text x="0" y="120" fill="#000000" font-size="5px" font-weight="bold" font-family="'Helvetica Neue', Helvetica, Arial-Unicode, Arial, Sans-serif">from the Noun Project</text></svg>